<?xml version="1.0" encoding="UTF-8" standalone="no"?>
<svg
   xmlns:dc="http://purl.org/dc/elements/1.1/"
   xmlns:cc="http://creativecommons.org/ns#"
   xmlns:rdf="http://www.w3.org/1999/02/22-rdf-syntax-ns#"
   xmlns:svg="http://www.w3.org/2000/svg"
   xmlns="http://www.w3.org/2000/svg"
   viewBox="0 0 240 381.33334"
   height="381.33334"
   width="240"
   xml:space="preserve"
   id="svg2"
   version="1.1"><metadata
     id="metadata8"><rdf:RDF><cc:Work
         rdf:about=""><dc:format>image/svg+xml</dc:format><dc:type
           rdf:resource="http://purl.org/dc/dcmitype/StillImage" /></cc:Work></rdf:RDF></metadata><defs
     id="defs6"><clipPath
       id="clipPath20"
       clipPathUnits="userSpaceOnUse"><path
         id="path18"
         d="M 1790,13.3281 H 6.66797 V 1116.71 H 1790 V 13.3281" /></clipPath><linearGradient
       id="linearGradient26"
       spreadMethod="pad"
       gradientTransform="matrix(1.32e-5,-1103.38,-1103.38,-1.32e-5,898.335,1116.71)"
       gradientUnits="userSpaceOnUse"
       y2="0"
       x2="1"
       y1="0"
       x1="0"><stop
         id="stop22"
         offset="0"
         style="stop-opacity:1;stop-color:#ffffff" /><stop
         id="stop24"
         offset="1"
         style="stop-opacity:1;stop-color:#f5deb1" /></linearGradient><clipPath
       id="clipPath36"
       clipPathUnits="userSpaceOnUse"><path
         id="path34"
         d="M 0,2859.98 V 0 h 1800 v 2859.98" /></clipPath></defs><g
     transform="matrix(1.3333333,0,0,-1.3333333,0,381.33333)"
     id="g10"><g
       transform="scale(0.1)"
       id="g12"><g
         id="g14"><g
           clip-path="url(#clipPath20)"
           id="g16"><path
             id="path28"
             style="fill:url(#linearGradient26);fill-opacity:1;fill-rule:nonzero;stroke:none"
             d="M 6.66797,13.3281 H 1789.998 v 1103.38 H 6.66797 Z" /></g></g><g
         id="g30"><g
           clip-path="url(#clipPath36)"
           id="g32"><path
             id="path38"
             style="fill:#f29b3f;fill-opacity:1;fill-rule:nonzero;stroke:none"
             d="M 20,1110.05 H 1780 V 20 H 20 Z m 1780,20 H 0 V 0 h 1800 v 1130.05" /><path
             id="path40"
             style="fill:#387eb5;fill-opacity:1;fill-rule:evenodd;stroke:none"
             d="m 1378.66,516.941 c -4.76,-22.761 -22.89,-32.671 -44.84,-33.671 -19.08,-0.981 -36.28,15.859 -23.87,35.66 9.56,16.82 36.28,20.789 52.5,20.789 6.67,0 14.34,0 21,0 -1.92,-7.918 -2.89,-14.867 -4.79,-22.778 z m -5.72,174.25 c -41.04,0 -73.48,-10.89 -98.29,-15.839 L 1267,612.98 c 12.41,5.942 51.54,16.821 84,17.821 32.45,0.988 51.53,-5.93 44.86,-33.66 -96.4,0 -161.31,-19.801 -174.67,-82.18 -19.1,-106.922 98.32,-103.949 145.08,-57.422 l -5.73,-25.738 h 85.9 l 37.23,170.289 c 15.26,72.281 -50.6,90.09 -110.73,89.101" /><path
             id="path42"
             style="fill:#387eb5;fill-opacity:1;fill-rule:evenodd;stroke:none"
             d="m 1557.15,758.531 -71.07,-326.73 h 87.26 l 71.94,326.73 h -88.13" /><path
             id="path44"
             style="fill:#387eb5;fill-opacity:1;fill-rule:evenodd;stroke:none"
             d="m 1153.41,646.648 c -5.75,-24.757 -30.63,-44.558 -54.55,-44.558 h -43.04 l 19.14,89.101 h 45.92 c 23.91,0 38.26,-19.8 32.53,-44.543 z m 2.85,110.883 H 996.516 l -70.793,-325.73 h 92.787 l 23.92,107.918 h 66.01 c 65.04,0 118.61,39.601 132.97,106.929 16.25,76.231 -39.23,110.883 -85.15,110.883" /><path
             id="path46"
             style="fill:#285581;fill-opacity:1;fill-rule:evenodd;stroke:none"
             d="m 542.949,516.941 c -4.711,-22.761 -23.574,-32.671 -45.254,-33.671 -18.855,-0.981 -34.882,15.859 -22.629,35.66 9.426,16.82 35.825,20.789 50.914,20.789 7.543,0 14.137,0 21.688,0 -1.887,-7.918 -3.773,-14.867 -4.719,-22.778 z m -6.594,174.25 c -40.539,0 -72.605,-10.89 -96.175,-15.839 l -7.539,-62.372 c 11.312,5.942 49.98,16.821 82.023,17.821 32.066,0.988 50.922,-5.93 45.258,-33.66 -95.219,0 -159.332,-19.801 -172.535,-82.18 -18.864,-106.922 97.105,-103.949 142.355,-57.422 l -5.644,-25.738 h 85.797 L 646.66,602.09 c 15.086,72.281 -50.914,90.09 -110.305,89.101" /><path
             id="path48"
             style="fill:#285581;fill-opacity:1;fill-rule:evenodd;stroke:none"
             d="m 684.043,686.512 h 85.793 l 13.832,-151.703 83.945,151.703 h 88.539 L 752.301,323.461 h -95.934 l 62.719,106.73 -35.043,256.321" /><path
             id="path50"
             style="fill:#285581;fill-opacity:1;fill-rule:evenodd;stroke:none"
             d="M 320.09,646.648 C 314.336,621.891 290.359,602.09 266.383,602.09 h -44.117 l 20.14,89.101 h 46.032 c 23.023,0 38.363,-19.8 31.652,-44.543 z m 2.875,110.883 H 162.805 L 91.8359,431.801 h 93.9921 l 23.016,107.918 h 67.125 c 64.258,0 117.972,39.601 132.351,106.929 16.297,76.231 -38.363,110.883 -85.355,110.883" /><path
             id="path52"
             style="fill:#285581;fill-opacity:1;fill-rule:nonzero;stroke:none"
             d="m 1664.12,716.301 v 38.519 h -14.37 v 5.16 h 34.62 v -5.16 h -14.45 v -38.519 h -5.8" /><path
             id="path54"
             style="fill:#285581;fill-opacity:1;fill-rule:nonzero;stroke:none"
             d="m 1690.1,716.301 v 43.679 h 8.65 l 10.36,-30.91 c 0.96,-2.879 1.65,-5.031 2.09,-6.461 0.5,1.582 1.28,3.922 2.33,6.993 l 10.48,30.378 h 7.78 v -43.679 h -5.56 v 36.57 l -12.74,-36.57 h -5.21 l -12.63,37.168 v -37.168 h -5.55" /><path
             id="path56"
             style="fill:#387eb5;fill-opacity:1;fill-rule:evenodd;stroke:none"
             d="m 1378.66,2616.94 c -4.76,-22.76 -22.89,-32.67 -44.84,-33.67 -19.08,-0.98 -36.28,15.86 -23.87,35.66 9.56,16.82 36.28,20.78 52.5,20.78 6.67,0 14.34,0 21,0 -1.92,-7.91 -2.89,-14.86 -4.79,-22.77 z m -5.72,174.25 c -41.04,0 -73.48,-10.89 -98.29,-15.84 l -7.65,-62.37 c 12.41,5.94 51.54,16.82 84,17.82 32.45,0.99 51.53,-5.93 44.86,-33.66 -96.4,0 -161.31,-19.8 -174.67,-82.18 -19.1,-106.92 98.32,-103.96 145.08,-57.42 l -5.73,-25.74 h 85.9 l 37.23,170.29 c 15.26,72.28 -50.6,90.09 -110.73,89.1" /><path
             id="path58"
             style="fill:#387eb5;fill-opacity:1;fill-rule:evenodd;stroke:none"
             d="m 1557.15,2858.54 -71.07,-326.74 h 87.26 l 71.94,326.74 h -88.13" /><path
             id="path60"
             style="fill:#387eb5;fill-opacity:1;fill-rule:evenodd;stroke:none"
             d="m 1153.41,2746.64 c -5.75,-24.75 -30.63,-44.55 -54.55,-44.55 h -43.04 l 19.14,89.1 h 45.92 c 23.91,0 38.26,-19.8 32.53,-44.55 z m 2.85,110.89 H 996.516 L 925.723,2531.8 h 92.787 l 23.92,107.91 h 66.01 c 65.04,0 118.61,39.61 132.97,106.93 16.25,76.24 -39.23,110.89 -85.15,110.89" /><path
             id="path62"
             style="fill:#285581;fill-opacity:1;fill-rule:evenodd;stroke:none"
             d="m 542.949,2616.94 c -4.711,-22.76 -23.574,-32.67 -45.254,-33.67 -18.855,-0.98 -34.882,15.86 -22.629,35.66 9.426,16.82 35.825,20.78 50.914,20.78 7.543,0 14.137,0 21.688,0 -1.887,-7.91 -3.773,-14.86 -4.719,-22.77 z m -6.594,174.25 c -40.539,0 -72.605,-10.89 -96.175,-15.84 l -7.539,-62.37 c 11.312,5.94 49.98,16.82 82.023,17.82 32.066,0.99 50.922,-5.93 45.258,-33.66 -95.219,0 -159.332,-19.8 -172.535,-82.18 -18.864,-106.92 97.105,-103.96 142.355,-57.42 l -5.644,-25.74 h 85.797 l 36.765,170.29 c 15.086,72.28 -50.914,90.09 -110.305,89.1" /><path
             id="path64"
             style="fill:#285581;fill-opacity:1;fill-rule:evenodd;stroke:none"
             d="m 684.043,2786.51 h 85.793 l 13.832,-151.7 83.945,151.7 h 88.539 L 752.301,2423.46 h -95.934 l 62.719,106.74 -35.043,256.31" /><path
             id="path66"
             style="fill:#285581;fill-opacity:1;fill-rule:evenodd;stroke:none"
             d="m 320.09,2746.64 c -5.754,-24.75 -29.731,-44.55 -53.707,-44.55 h -44.117 l 20.14,89.1 h 46.032 c 23.023,0 38.363,-19.8 31.652,-44.55 z m 2.875,110.89 H 162.805 L 91.8359,2531.8 h 93.9921 l 23.016,107.91 h 67.125 c 64.258,0 117.972,39.61 132.351,106.93 16.297,76.24 -38.363,110.89 -85.355,110.89" /><path
             id="path68"
             style="fill:#285581;fill-opacity:1;fill-rule:nonzero;stroke:none"
             d="m 1664.12,2816.3 v 38.52 h -14.37 v 5.16 h 34.62 v -5.16 h -14.45 v -38.52 h -5.8" /><path
             id="path70"
             style="fill:#285581;fill-opacity:1;fill-rule:nonzero;stroke:none"
             d="m 1690.1,2816.3 v 43.68 h 8.65 l 10.36,-30.91 c 0.96,-2.88 1.65,-5.03 2.09,-6.46 0.5,1.59 1.28,3.92 2.33,7 l 10.48,30.37 h 7.78 v -43.68 h -5.56 v 36.57 l -12.74,-36.57 h -5.21 l -12.63,37.16 v -37.16 h -5.55" /></g></g></g></g></svg>