<?xml version="1.0" encoding="UTF-8" standalone="no"?>
<svg
   xmlns:dc="http://purl.org/dc/elements/1.1/"
   xmlns:cc="http://creativecommons.org/ns#"
   xmlns:rdf="http://www.w3.org/1999/02/22-rdf-syntax-ns#"
   xmlns:svg="http://www.w3.org/2000/svg"
   xmlns="http://www.w3.org/2000/svg"
   viewBox="0 0 258.66666 258.66666"
   height="258.66666"
   width="258.66666"
   xml:space="preserve"
   id="svg2"
   version="1.1"><metadata
     id="metadata8"><rdf:RDF><cc:Work
         rdf:about=""><dc:format>image/svg+xml</dc:format><dc:type
           rdf:resource="http://purl.org/dc/dcmitype/StillImage" /></cc:Work></rdf:RDF></metadata><defs
     id="defs6" /><g
     transform="matrix(1.3333333,0,0,-1.3333333,0,258.66667)"
     id="g10"><g
       transform="scale(0.1)"
       id="g12"><path
         id="path14"
         style="fill:#ffffff;fill-opacity:1;fill-rule:evenodd;stroke:none"
         d="M 2.59766,5.66797 H 1930.1577 V 1933.228 H 2.59766 Z" /><path
         id="path16"
         style="fill:#206054;fill-opacity:1;fill-rule:evenodd;stroke:none"
         d="m 1508.93,1194.63 h 147.15 l -17.38,-85.54 c 44.94,70.33 96.41,90.6 159.48,94.95 21.75,0.71 48.57,-2.17 72.5,-5.79 l -28.3,-112.37 c -23.18,5.8 -47.82,10.15 -69.57,10.15 -86.98,1.44 -151.52,-57.24 -173.99,-141.311 l -50.75,-192.856 h -152.22 c 37.69,144.258 87.73,301.537 113.08,432.767" /><path
         id="path18"
         style="fill:#206054;fill-opacity:1;fill-rule:evenodd;stroke:none"
         d="m 1090.54,1002.42 c 25.37,12.32 113.82,10.97 171.09,18.23 65.96,7.97 158,44.22 155.82,99.31 -3.63,58.72 -55.79,72.02 -104.36,65.5 -114.54,-16.67 -189.2,-91.71 -222.55,-183.04 z m -14.17,-37.459 c -2.9,-25.371 -6.12,-52.328 -3.95,-72.629 9.42,-71.762 72.34,-105.324 139.76,-107.5 56.13,-1.332 124.58,32.254 161.81,74.082 7.03,7.906 15.11,5.328 19.88,-0.984 3.64,-4.809 2.2,-15.696 -1.15,-19.024 -58.47,-58.035 -118.57,-90.801 -202.14,-91.508 -94.96,-0.722 -213.853,35.473 -228.35,134.063 -2.175,11.602 -2.175,24.648 -0.726,38.422 18.848,182.617 185.586,281.267 349.406,289.967 78.3,4.35 191.39,-15.95 184.86,-100.76 -6.52,-89.17 -141.36,-120.344 -229.07,-122.516 -73.95,-2.176 -164.96,-1.847 -190.33,-21.613" /><path
         id="path20"
         style="fill:#206054;fill-opacity:1;fill-rule:evenodd;stroke:none"
         d="m 994.582,861.855 -24.621,-94.21 c -41.324,-8.704 -94.992,-16.692 -144.289,-15.235 -146.43,2.895 -253.719,70.332 -247.195,209.52 7.964,160.18 166.738,242.11 319.695,244.28 50.746,0 97.133,-5.06 148.598,-17.39 l -45.66,-90.61 c -33.352,9.43 -78.294,18.13 -123.243,13.77 -70.316,-5.07 -134.832,-42.76 -153.683,-116.707 -24.645,-92.789 28.996,-158.05 123.968,-158.05 50.012,0 98.59,10.136 146.43,24.632" /><path
         id="path22"
         style="fill:#206054;fill-opacity:1;fill-rule:evenodd;stroke:none"
         d="m 375.5,1204.77 c 122.508,0 214.781,-28.13 223.574,-129.86 3.391,-39.13 -10.863,-74.03 -21.738,-115.347 L 526.281,761.125 c -97.863,0 -177.605,-2.176 -266.043,-9.43 -81.918,0 -179.7849,17.403 -179.7849,121.793 1.7071,170.582 266.0469,155.132 378.4099,155.132 23.926,68.14 -31.898,95.69 -110.187,95.69 -71.039,0 -129.543,-20.3 -186.817,-39.15 l 20.086,92.07 c 55.817,18.12 127.582,27.54 193.555,27.54 z m 66.691,-244.293 c -61.73,0 -236.164,14.554 -236.164,-79.743 0,-47.117 49.297,-54.144 90.618,-54.144 108.574,0 125.511,37.902 145.546,133.887" /><path
         id="path24"
         style="fill:#206054;fill-opacity:1;fill-rule:evenodd;stroke:none"
         d="m 1819.52,849.57 c -16.64,0 -31.15,-6.527 -42.03,-17.418 -11.58,-12.316 -18.12,-27.515 -18.12,-43.461 0,-15.968 6.54,-30.464 17.42,-42.07 11.58,-11.59 26.8,-18.117 42.73,-18.117 15.94,0 31.19,6.527 42.8,18.117 11.61,11.606 17.38,26.102 17.38,42.07 0,16.653 -5.77,31.856 -17.38,42.747 -11.61,11.605 -26.86,18.132 -42.8,18.132 z m 54.41,-60.879 c 0,-14.5 -5.81,-27.582 -15.97,-37.707 -10.14,-10.152 -24.64,-15.953 -38.44,-15.953 -14.48,0 -28.26,5.801 -38.4,15.953 -10.14,10.125 -15.92,23.911 -15.92,37.707 0,14.461 5.78,28.258 15.92,39.145 10.14,10.129 23.92,15.918 38.4,15.918 14.52,0 28.3,-5.789 38.44,-16.668 10.16,-10.137 15.97,-23.176 15.97,-38.395 z m -52.94,36.239 h -24.65 v -69.629 h 9.44 V 786.5 h 17.4 l 15.19,-31.199 h 10.91 l -15.96,31.902 c 10.14,1.488 16.68,8.738 16.68,18.141 0,13.769 -9.44,19.586 -29.01,19.586 z m -1.47,-6.543 c 13.8,0 21.04,-3.617 21.04,-12.324 0,-10.856 -6.52,-13.766 -21.04,-13.766 h -13.74 v 26.09 h 13.74" /></g></g></svg>