<?xml version="1.0" encoding="UTF-8"?>
<!DOCTYPE svg PUBLIC "-//W3C//DTD SVG 1.1//EN" "http://www.w3.org/Graphics/SVG/1.1/DTD/svg11.dtd">
<!-- Creator: CorelDRAW X6 -->
<svg xmlns="http://www.w3.org/2000/svg" xml:space="preserve" width="2.66666in" height="2.52778in" version="1.1" style="shape-rendering:geometricPrecision; text-rendering:geometricPrecision; image-rendering:optimizeQuality; fill-rule:evenodd; clip-rule:evenodd"
viewBox="0 0 2667 2528"
 xmlns:xlink="http://www.w3.org/1999/xlink">
 <defs>
  <style type="text/css">
   <![CDATA[
    .fil0 {fill:#275C99}
   ]]>
  </style>
 </defs>
 <g id="Layer_x0020_1">
  <metadata id="CorelCorpID_0Corel-Layer"/>
  <path class="fil0" d="M2326 2258c-62,-10 -117,-13 -117,-46 0,-13 8,-26 20,-35 11,-8 38,-11 57,-11 20,0 39,10 51,23 8,9 17,23 18,38l100 0 0 0c-2,-37 -18,-73 -47,-94 -28,-20 -64,-45 -114,-45 -48,0 -94,2 -127,26 -32,23 -56,63 -56,97 0,20 -2,43 6,57 8,14 32,44 51,55 26,15 88,21 122,30 28,7 62,8 69,36 5,17 -1,32 -16,42 -14,10 -36,17 -60,17 -25,0 -49,-8 -61,-23 -11,-14 -17,-28 -25,-50l-100 0 0 0c2,46 28,91 60,117 31,25 72,37 125,37 53,0 99,-9 133,-33 33,-24 51,-69 51,-106 0,-32 -9,-57 -23,-76 -29,-38 -82,-49 -118,-54l0 0z"/>
  <polygon class="fil0" points="1018,2516 1119,2516 1119,2093 1018,2093 "/>
  <polygon class="fil0" points="1018,2065 1120,2065 1120,1963 1018,1963 "/>
  <path class="fil0" d="M731 2435l-1 0 0 0c-69,0 -126,-57 -126,-126 0,-69 57,-126 126,-126l1 0 0 0c69,0 126,57 126,126 0,69 -57,126 -126,126l0 0zm138 -286c-38,-29 -86,-50 -139,-51 -2,0 -3,0 -5,0 -117,0 -212,95 -212,211 0,117 95,213 212,213 2,0 4,0 5,0 53,-1 101,-22 138,-58l0 0 1 52 97 0 0 -553 -97 0 0 186z"/>
  <path class="fil0" d="M1362 2434c-69,0 -127,-57 -127,-127 0,-69 57,-125 127,-125 69,0 127,57 127,125 0,69 -57,127 -127,127l0 0zm139 -287c-38,-29 -86,-50 -139,-51 -2,0 -4,0 -5,0 -117,0 -213,96 -213,212 0,117 96,213 213,213 2,0 4,0 5,0 53,-2 100,-23 138,-59l0 52 97 0 0 -552 -97 0 1 186 0 0z"/>
  <path class="fil0" d="M251 2428c-1,0 -1,0 -1,0 -69,0 -125,-56 -125,-125 0,-69 56,-125 125,-125 0,0 0,0 1,0 69,0 125,57 125,125 0,69 -57,125 -125,125l0 0zm126 -335l0 40c-20,-21 -29,-28 -51,-36 -20,-8 -48,-14 -75,-15 -2,0 -3,0 -5,0 -32,0 -61,5 -87,16 -25,11 -48,27 -69,50 -19,20 -34,44 -45,70 -10,26 -15,54 -15,83 0,64 21,118 63,159 41,42 94,64 158,64 0,0 0,0 1,0 26,0 54,-8 76,-16 23,-8 39,-15 50,-30l0 38 98 -1 -1 -423 -97 1 0 0z"/>
  <path class="fil0" d="M1851 2427c-69,-1 -126,-57 -126,-126 0,-69 57,-124 126,-125 69,0 126,57 126,125 0,69 -57,126 -126,126l0 0zm126 -336l1 40 0 0c-20,-20 -29,-27 -51,-36 -21,-8 -48,-14 -75,-14 -2,0 -3,0 -5,0 -32,0 -61,5 -87,15 -26,11 -49,28 -69,50 -20,20 -35,44 -45,71 -10,26 -16,54 -16,83 0,63 22,117 64,159 41,41 94,63 158,63 26,0 54,-7 76,-16 23,-8 40,-15 51,-30l0 38 98 -1 -2 -422 -97 0 0 0z"/>
  <path class="fil0" d="M2553 2086c-55,0 -100,-45 -100,-100 0,-54 45,-99 100,-98 55,0 100,45 100,99 0,54 -45,99 -100,99l0 0zm0 -218c-1,0 -2,-1 -2,-1 -66,0 -119,54 -119,119 0,66 54,118 119,118 0,0 1,0 2,0 65,-1 118,-54 118,-118 0,-65 -53,-118 -118,-118l0 0z"/>
  <path class="fil0" d="M2553 1978c-2,0 -4,0 -6,0l-19 0 0 -32 20 0 0 0c2,0 4,0 5,0 8,0 13,0 14,1 4,0 8,2 10,5 3,2 4,6 4,10 0,4 -1,8 -3,11 -2,2 -5,4 -7,5 -3,1 -9,1 -18,2l0 0zm35 29c-4,-4 -8,-8 -14,-11 11,-2 20,-6 26,-13 5,-5 9,-14 9,-23 0,-8 -3,-15 -6,-21 -4,-5 -10,-10 -15,-12 -6,-2 -16,-3 -30,-3l-55 0 0 129 26 0 0 -54 5 0 0 0c6,0 11,1 14,2 3,1 5,2 7,5 0,1 1,1 1,2 3,2 8,8 14,18l0 0 19 29 31 0 -16 -25 0 0c-6,-10 -11,-18 -14,-21l0 0z"/>
  <path class="fil0" d="M2395 970l-714 0 0 0c197,-277 480,-434 847,-489 -23,185 -66,343 -133,489l0 0zm-853 1l-576 0 0 0c-13,-370 90,-746 288,-973 201,220 306,595 288,973l0 0zm-717 -1l-700 0 0 0c-64,-148 -105,-301 -124,-491 361,64 639,212 824,490l0 0zm1435 273l-2005 1 0 0c-27,-37 -58,-90 -77,-131l2158 0 0 0c-20,47 -47,90 -77,131l0 0zm-231 253l-1552 -1 0 0c-52,-41 -87,-63 -128,-117l1810 0 0 0c-40,44 -87,84 -130,118l0 0zm-656 108l-244 0 0 0c34,71 78,131 128,188 49,-58 82,-119 116,-189l0 0zm51 1l-26 163 0 0c177,-33 334,-84 469,-163l-443 0 0 0zm-338 0l-444 0 0 0c133,82 288,136 464,173l0 0 -21 -173 0 0z"/>
 </g>
</svg>
