<?xml version="1.0" encoding="UTF-8" standalone="no"?>
<svg
   xmlns:dc="http://purl.org/dc/elements/1.1/"
   xmlns:cc="http://creativecommons.org/ns#"
   xmlns:rdf="http://www.w3.org/1999/02/22-rdf-syntax-ns#"
   xmlns:svg="http://www.w3.org/2000/svg"
   xmlns="http://www.w3.org/2000/svg"
   viewBox="0 0 88.466667 88.466667"
   height="88.466667"
   width="88.466667"
   xml:space="preserve"
   id="svg2"
   version="1.1"><metadata
     id="metadata8"><rdf:RDF><cc:Work
         rdf:about=""><dc:format>image/svg+xml</dc:format><dc:type
           rdf:resource="http://purl.org/dc/dcmitype/StillImage" /></cc:Work></rdf:RDF></metadata><defs
     id="defs6" /><g
     transform="matrix(1.3333333,0,0,-1.3333333,0,88.466667)"
     id="g10"><g
       transform="scale(0.1)"
       id="g12"><path
         id="path14"
         style="fill:#2286d0;fill-opacity:1;fill-rule:nonzero;stroke:none"
         d="m 331.73,627.633 c -81.679,0 -155.644,-33.125 -209.191,-86.664 C 68.9727,487.406 35.8594,413.441 35.8594,331.754 c 0,-81.695 33.1133,-155.66 86.6796,-209.195 53.547,-53.5551 127.512,-86.6801 209.191,-86.6801 81.715,0 155.68,33.125 209.215,86.6801 53.567,53.535 86.684,127.5 86.684,209.195 0,81.687 -33.117,155.652 -86.684,209.215 -53.535,53.539 -127.5,86.664 -209.215,86.664 m 0,35.867 C 514.949,663.5 663.508,514.961 663.508,331.754 663.508,148.586 514.949,0 331.73,0 148.547,0 0,148.586 0,331.754 0,514.961 148.547,663.5 331.73,663.5" /><path
         id="path16"
         style="fill:#2286d0;fill-opacity:1;fill-rule:nonzero;stroke:none"
         d="m 174.785,334.363 c 0,19.414 -12.812,30.36 -30.93,30.36 h -11.113 v -60.719 h 10.821 c 16.835,0 31.222,9.211 31.222,30.359 M 372.59,312.578 290.676,248.164 215.789,307.051 C 204.988,281.105 178.977,263.008 148.84,263.008 H 84.8359 V 405.703 H 148.84 c 33.621,0 57.808,-21.254 66.902,-44.055 l 74.934,58.895 27.769,-21.844 -68.609,-53.953 13.144,-10.336 68.629,53.953 27.754,-21.808 -68.633,-53.977 13.176,-10.351 68.684,53.941 v 49.535 h 49.82 V 304.746 h 49.594 V 262.988 H 372.59 Z m 162.461,-7.859 h 49.59 v -41.731 h -99.414 v 142.715 h 49.824 V 304.719" /></g></g></svg>