<?xml version="1.0" encoding="UTF-8"?>
<!DOCTYPE svg PUBLIC "-//W3C//DTD SVG 1.1//EN" "http://www.w3.org/Graphics/SVG/1.1/DTD/svg11.dtd">
<!-- Creator: CorelDRAW X6 -->
<svg xmlns="http://www.w3.org/2000/svg" xml:space="preserve" width="1.38889in" height="0.48611in" version="1.1" style="shape-rendering:geometricPrecision; text-rendering:geometricPrecision; image-rendering:optimizeQuality; fill-rule:evenodd; clip-rule:evenodd"
viewBox="0 0 1389 486"
 xmlns:xlink="http://www.w3.org/1999/xlink">
 <defs>
  <style type="text/css">
   <![CDATA[
    .fil0 {fill:#373635;fill-rule:nonzero}
   ]]>
  </style>
 </defs>
 <g id="Layer_x0020_1">
  <metadata id="CorelCorpID_0Corel-Layer"/>
  <path class="fil0" d="M612 -5c4,0 9,-1 13,-1l23 0c24,1 48,6 71,12l1 1c-2,13 -5,27 -8,40 -26,-8 -52,-13 -79,-13 -8,0 -18,1 -25,6 -9,8 -11,23 -4,33 7,10 18,16 29,21 26,12 56,16 77,36 16,14 21,37 19,57 -1,21 -10,42 -27,54 -20,14 -45,17 -69,16 -31,-1 -62,-4 -92,-12 2,-15 4,-29 6,-44 33,9 68,18 102,9 18,-4 26,-29 11,-41 -26,-21 -62,-21 -88,-40 -19,-13 -33,-35 -33,-58 0,-20 6,-41 20,-56 14,-14 33,-20 52,-22l0 0z"/>
  <path class="fil0" d="M864 -4c6,-1 13,-2 19,-2l24 0c24,1 48,6 72,12 -2,14 -5,28 -8,42 -26,-9 -54,-14 -82,-13 -9,0 -20,2 -26,10 -7,11 -5,26 5,35 29,26 73,24 101,52 16,15 22,38 19,60 -2,21 -12,42 -30,53 -25,15 -56,15 -84,13 -25,-1 -50,-5 -74,-11 2,-15 4,-29 6,-44 29,8 58,15 88,12 10,-1 21,-4 27,-11 8,-10 7,-26 -4,-34 -26,-20 -62,-20 -88,-40 -18,-13 -32,-34 -31,-57 0,-19 5,-39 17,-53 12,-14 30,-21 48,-24l0 0z"/>
  <path class="fil0" d="M404 197c-9,16 -28,23 -45,23 -17,1 -36,-5 -46,-19 -13,-18 -15,-42 -16,-64 0,-24 0,-49 10,-72 6,-14 20,-24 36,-27 20,-4 44,0 58,17 14,18 16,42 16,64 0,26 1,54 -13,78zm-42 -202l-8 0c-10,0 -20,1 -30,3 -12,3 -23,7 -34,13 -29,17 -46,48 -52,81 -6,37 -4,76 12,111 13,28 40,49 71,56 32,7 67,5 96,-10 25,-13 43,-37 52,-64 10,-31 10,-64 4,-96 -6,-31 -22,-62 -50,-78 -19,-11 -40,-16 -62,-17z"/>
  <path class="fil0" d="M0 0c59,0 118,0 177,0 1,14 1,28 2,42 -39,1 -78,0 -117,0 0,24 -1,49 0,73 34,0 69,-1 103,0 0,14 0,28 0,42 -34,0 -69,0 -103,0 0,32 0,65 0,97 -20,0 -41,0 -61,0l0 -88 0 -12c0,-50 0,-101 0,-151l0 -4 0 0z"/>
  <path class="fil0" d="M1069 0c21,-1 42,0 63,0 0,85 0,170 0,255 -21,0 -42,0 -63,0 0,-85 0,-170 0,-255l0 0z"/>
  <path class="fil0" d="M1224 0c21,0 42,0 63,0 0,70 0,141 0,211 34,0 68,0 102,0 -1,14 -1,29 -2,43 -54,0 -109,0 -163,0 0,-85 0,-170 0,-255l0 0z"/>
  <path class="fil0" d="M597 369c5,1 9,-1 14,1 22,6 44,11 67,11 7,0 15,3 22,4 -1,2 -2,5 -3,7 2,-1 6,-3 7,-4 1,1 3,2 4,3 2,0 7,-1 10,-2 -2,4 -6,5 -9,7 0,6 0,12 2,17 3,-4 2,-9 1,-13 2,-3 4,-6 6,-8 3,4 6,8 9,12 -1,2 -2,4 -2,6 3,-2 6,-4 9,-7 7,-8 18,-12 27,-17 0,-3 0,-7 1,-10 5,-3 6,3 8,7 1,1 3,2 3,3 -6,5 -12,11 -10,20 -2,1 -4,2 -6,3 0,4 -1,8 -2,11 -1,2 -2,5 -3,7 1,2 2,5 3,7 -4,10 -15,15 -17,25 3,8 8,16 8,26 -8,-2 -13,-10 -13,-18 -1,-1 -3,-2 -4,-2 -7,0 -13,-1 -20,-1 -3,10 -13,2 -20,3 -7,4 -16,10 -13,20 -11,-2 -10,-15 -18,-20 -3,1 -5,2 -8,4 -4,-5 -7,-11 -12,-15 -13,5 -24,-6 -35,-10 -4,-4 -9,-8 -12,-13 -4,-14 -7,-30 0,-43 4,-6 6,-13 6,-20l0 0z"/>
  <path class="fil0" d="M368 386c7,-3 16,-3 24,0 7,3 8,11 9,17 -5,0 -9,1 -14,1 1,-9 -15,-11 -13,-1 6,12 21,16 26,28 3,8 2,19 -6,24 -8,4 -18,4 -26,1 -7,-4 -8,-13 -9,-20 5,-1 9,-1 14,-2 1,4 0,12 7,12 6,1 10,-7 6,-11 -7,-9 -18,-13 -24,-23 -4,-8 -2,-20 6,-25l0 0z"/>
  <path class="fil0" d="M946 386c7,-3 16,-3 24,0 6,3 7,11 9,16 -5,1 -9,1 -14,2 0,-7 -10,-12 -13,-4 1,10 13,14 19,21 10,7 12,24 3,32 -8,6 -19,6 -28,2 -8,-3 -9,-13 -10,-20 5,-1 9,-1 14,-2 1,5 1,13 8,12 6,1 8,-7 5,-11 -7,-10 -19,-14 -25,-25 -3,-8 -2,-20 7,-24l0 0z"/>
  <path class="fil0" d="M266 384c11,0 23,0 34,0 0,4 0,8 0,12 -7,0 -14,0 -20,0 0,5 0,10 0,15 6,0 11,0 17,0 0,4 0,8 0,11 -6,0 -11,0 -17,0 0,7 0,15 0,22 7,0 14,0 20,0 0,4 0,8 0,12 -12,0 -23,0 -35,0 0,-24 0,-49 0,-73l0 0z"/>
  <path class="fil0" d="M453 384c13,0 26,0 39,0 0,4 0,8 0,12 -4,0 -8,0 -13,0 0,20 0,40 0,61 -5,0 -9,0 -14,0 0,-20 0,-41 0,-61 -4,0 -8,0 -12,0 0,-4 0,-8 0,-12l0 0z"/>
  <path class="fil0" d="M829 384c5,0 9,0 14,0 1,19 -1,38 1,57 0,7 12,7 13,0 1,-19 0,-38 0,-57 5,0 9,0 14,0 0,18 0,36 0,54 0,6 -1,14 -7,17 -7,4 -17,4 -24,1 -7,-3 -10,-11 -10,-18 0,-18 0,-36 0,-54l0 0z"/>
  <path class="fil0" d="M1055 433c1,-9 2,-17 5,-26 1,9 2,17 4,26 -2,0 -6,0 -8,0zm12 -49c-5,0 -10,0 -15,0 -5,24 -9,49 -14,73l14 0c1,-5 2,-9 3,-14 3,0 7,0 10,1 1,4 2,8 3,13 5,0 9,0 14,0 -5,-24 -9,-49 -14,-73z"/>
  <path class="fil0" d="M531 443c5,0 9,0 14,0 0,5 0,9 0,14 -5,0 -9,0 -14,0 0,-5 0,-9 0,-14l0 0z"/>
 </g>
</svg>
