<?xml version="1.0" encoding="UTF-8"?>
<!DOCTYPE svg PUBLIC "-//W3C//DTD SVG 1.1//EN" "http://www.w3.org/Graphics/SVG/1.1/DTD/svg11.dtd">
<!-- Creator: CorelDRAW X6 -->
<svg xmlns="http://www.w3.org/2000/svg" xml:space="preserve" width="2.54166in" height="0.416661in" version="1.1" style="shape-rendering:geometricPrecision; text-rendering:geometricPrecision; image-rendering:optimizeQuality; fill-rule:evenodd; clip-rule:evenodd"
viewBox="0 0 2542 417"
 xmlns:xlink="http://www.w3.org/1999/xlink">
 <defs>
  <style type="text/css">
   <![CDATA[
    .fil0 {fill:#410CA6}
   ]]>
  </style>
 </defs>
 <g id="Layer_x0020_1">
  <metadata id="CorelCorpID_0Corel-Layer"/>
  <polygon class="fil0" points="458,311 458,5 577,4 578,412 370,412 121,104 121,411 1,412 0,5 2,4 209,4 458,311 "/>
  <path class="fil0" d="M1916 5l1 407 -127 0 -1 -407 1 -1c42,0 84,-1 126,1l0 0z"/>
  <polygon class="fil0" points="1346,201 1346,202 1362,189 1566,5 1735,5 1502,202 1502,204 1765,411 1580,412 1347,203 1346,205 1346,412 1219,412 1219,5 1346,5 "/>
  <path class="fil0" d="M771 101c-11,2 -24,6 -26,19 0,61 -2,122 1,183 4,10 15,9 23,12l230 1c20,-2 43,3 54,-16l1 -172 -2 -13c-3,-8 -11,-9 -18,-11l-263 -1 0 0zm54 -102l-5 0c-47,2 -96,0 -137,17 -25,13 -51,39 -52,69l-1 235 4 26c9,31 42,57 73,62 71,13 149,8 225,9 64,-2 131,4 187,-20 26,-14 46,-40 48,-70l1 -221c1,-18 -3,-33 -9,-47 -28,-52 -85,-56 -138,-58l0 0 -196 -1z"/>
  <path class="fil0" d="M2246 107l-78 145 156 0c-26,-48 -52,-97 -78,-145l0 0zm305 303l0 2 -140 0c-13,-23 -26,-46 -37,-69l-3 -1 -250 0 -38 69 -142 1 224 -407 164 0 222 406 0 0z"/>
 </g>
</svg>
