<?xml version="1.0" encoding="UTF-8"?>
<!DOCTYPE svg PUBLIC "-//W3C//DTD SVG 1.1//EN" "http://www.w3.org/Graphics/SVG/1.1/DTD/svg11.dtd">
<!-- Creator: CorelDRAW X6 -->
<svg xmlns="http://www.w3.org/2000/svg" xml:space="preserve" width="2.5in" height="1.94444in" version="1.1" style="shape-rendering:geometricPrecision; text-rendering:geometricPrecision; image-rendering:optimizeQuality; fill-rule:evenodd; clip-rule:evenodd"
viewBox="0 0 2500 1944"
 xmlns:xlink="http://www.w3.org/1999/xlink">
 <defs>
  <style type="text/css">
   <![CDATA[
    .fil0 {fill:#333332}
   ]]>
  </style>
 </defs>
 <g id="Layer_x0020_1">
  <metadata id="CorelCorpID_0Corel-Layer"/>
  <path class="fil0" d="M238 -3c-16,2 -32,62 -63,93 -23,22 -51,21 -66,49 -6,10 -4,28 -10,45 -13,34 -58,37 -58,74 0,40 37,47 70,76 25,23 28,38 59,49 26,9 65,-20 100,-10 29,9 56,15 63,44 6,27 0,70 -35,65 -12,-1 -63,-19 -126,-12 -76,9 -162,33 -171,118 -5,47 54,103 110,92 39,-8 21,-54 42,-76 28,-29 186,100 332,100 62,0 108,-16 153,-63 4,-4 9,-11 16,-12 6,1 17,7 21,9 118,95 207,285 642,288 61,0 131,30 187,81 51,47 80,120 109,194 43,111 121,219 239,339 6,6 104,82 111,88 1,1 8,18 6,27 -3,72 -13,281 143,291 1,0 2,0 3,0 34,0 25,-26 25,-43 0,-36 -7,-73 12,-110 26,-51 -56,-75 -53,-186 2,-83 -68,-69 -103,-132 -20,-37 -38,-56 -37,-101 8,-251 -54,-417 -84,-457 -24,-31 -44,-43 -22,-57 130,-86 160,-166 160,-166 69,-163 132,-312 217,-377 17,-14 62,-47 89,-60 80,-38 122,-61 146,-83 25,-24 46,-65 47,-104l0 -4c0,-17 -5,-34 -16,-48 -16,-20 -36,-27 -56,-27 -37,0 -76,23 -97,36 -239,142 -275,393 -358,537 -66,115 -174,200 -270,206 -72,5 -150,-9 -227,-43 -188,-83 -291,-189 -316,-208 -51,-39 -443,-425 -761,-440 0,0 -40,-79 -49,-80 -23,-3 -47,47 -64,53 -16,5 -43,-54 -59,-52l0 0z"/>
 </g>
</svg>
