<?xml version="1.0" encoding="UTF-8" standalone="no"?>
<svg
   xmlns:dc="http://purl.org/dc/elements/1.1/"
   xmlns:cc="http://creativecommons.org/ns#"
   xmlns:rdf="http://www.w3.org/1999/02/22-rdf-syntax-ns#"
   xmlns:svg="http://www.w3.org/2000/svg"
   xmlns="http://www.w3.org/2000/svg"
   viewBox="0 0 496.92001 98.053329"
   height="98.053329"
   width="496.92001"
   xml:space="preserve"
   id="svg2"
   version="1.1"><metadata
     id="metadata8"><rdf:RDF><cc:Work
         rdf:about=""><dc:format>image/svg+xml</dc:format><dc:type
           rdf:resource="http://purl.org/dc/dcmitype/StillImage" /></cc:Work></rdf:RDF></metadata><defs
     id="defs6"><clipPath
       id="clipPath20"
       clipPathUnits="userSpaceOnUse"><path
         id="path18"
         d="M 0,0 H 3726.89 V 735 H 0 Z" /></clipPath></defs><g
     transform="matrix(1.3333333,0,0,-1.3333333,0,98.053333)"
     id="g10"><g
       transform="scale(0.1)"
       id="g12"><g
         id="g14"><g
           clip-path="url(#clipPath20)"
           id="g16"><path
             id="path22"
             style="fill:#231f20;fill-opacity:1;fill-rule:nonzero;stroke:none"
             d="m 2059.32,371.055 c -43.71,-2.621 -85.32,-25.11 -85.32,-87.746 0,-34.043 0,-48.055 0,-99.239 0,-60.574 41.49,-84.4802 85.34,-87.363 2.13,-0.164 13.28,-0.125 15.32,0 43.06,2.6485 85.3,25.93 85.3,87.363 0,21.934 0,45 0,99.239 0,62.187 -42.21,85.089 -85.62,87.746 -5.68,0.343 -10.03,0.297 -15.02,0 z m 209.04,-88 c 0,-9.942 0,-71.16 0,-98.27 0,-115.4881 -78.92,-180.13656 -189.43,-183.63266 -6.18,-0.195309 -17.19,-0.253902 -23.91,0 -110.46,4.17969 -189.43,68.85546 -189.43,183.63266 0,14.278 0,77.254 0,98.27 0,115.726 79.64,180.379 190.5,183.672 5.69,0.156 16.54,0.148 21.77,0 111.58,-3.293 190.5,-68.633 190.5,-183.672" /><path
             id="path24"
             style="fill:#231f20;fill-opacity:1;fill-rule:nonzero;stroke:none"
             d="m 2434.87,271.973 c 0,0 162.41,184.422 171.66,194.902 9.06,0 135.67,0 135.67,0 L 2545.59,243.789 2752.56,14.4609 H 2615.35 L 2434.87,214.168 V 14.4609 H 2325.92 V 576.984 l 108.95,-0.004 V 271.973" /><path
             id="path26"
             style="fill:#231f20;fill-opacity:1;fill-rule:nonzero;stroke:none"
             d="m 596.609,290.457 c 0,59.602 39.414,82.648 86.223,84.828 4.836,0.211 10.176,0.192 14.481,0 47.492,-2.18 87.304,-27.094 87.304,-84.711 0,-2.734 0.012,-4.883 0.012,-7.832 -7.461,0 -182.664,0 -188.047,0 0,1.485 0.027,5.149 0.027,7.715 z m 295.032,-87.059 c 0,0 0,51.825 0,79.676 0,115.375 -80.762,179.895 -191.661,183.602 -1.308,0.031 -19.171,0.031 -20.683,0 -111.621,-3.707 -190.496,-68.227 -190.496,-183.641 0,-26.113 0,11.66 0,-98.281 0,-109.9493 82.039,-178.71103 188.062,-183.63291 11.282,-0.507809 17.09,0 24.883,0 132.578,0 181.809,67.47271 188.027,144.07391 -15.281,0 -85.515,0 -99.722,0 -2.981,-14.23 -7.434,-51.5934 -91.449,-51.5934 -14.508,0 -34.723,3.3906 -49.461,8.3004 -62.137,20.703 -52.176,97.278 -52.176,101.496 3.484,0 294.676,0 294.676,0" /><path
             id="path28"
             style="fill:#231f20;fill-opacity:1;fill-rule:nonzero;stroke:none"
             d="m 1053.71,290.457 c 0,59.602 39.42,82.648 86.22,84.828 4.83,0.211 10.18,0.192 14.48,0 47.49,-2.18 87.31,-27.094 87.31,-84.711 0,-2.734 0.01,-4.883 0.01,-7.832 -7.45,0 -182.67,0 -188.05,0 0,1.485 0.03,5.149 0.03,7.715 z m 295.03,-87.059 c 0,0 0,51.825 0,79.676 0,115.375 -80.76,179.895 -191.66,183.602 -1.31,0.031 -19.16,0.031 -20.68,0 -111.63,-3.707 -190.513,-68.227 -190.513,-183.641 0,-26.113 0,11.66 0,-98.281 0,-109.9493 82.053,-178.71103 188.073,-183.63291 11.29,-0.507809 17.09,0 24.89,0 132.58,0 181.8,67.47271 188.03,144.07391 -15.29,0 -85.52,0 -99.73,0 -2.98,-14.23 -7.43,-51.5934 -91.45,-51.5934 -14.51,0 -34.72,3.3906 -49.47,8.3004 -62.14,20.703 -52.17,97.278 -52.17,101.496 3.49,0 294.68,0 294.68,0" /><path
             id="path30"
             style="fill:#231f20;fill-opacity:1;fill-rule:nonzero;stroke:none"
             d="m 1701.84,183.23 c 0,-61.464 -42.24,-84.7339 -85.34,-87.3628 -2.03,-0.125 -13.16,-0.1641 -15.31,0 -43.84,2.8828 -85.32,26.7778 -85.32,87.3628 v 99.239 c 0,62.617 41.62,85.101 85.28,87.726 5.01,0.297 9.39,0.356 15.06,0 43.43,-2.636 85.63,-25.527 85.63,-87.726 z m -81.78,282.688 c -50.49,0 -84.98,-13.758 -104.33,-30.059 0,8.364 0,141.121 0,141.121 H 1407.27 V 14.4609 h 19.06 c 0,0 48.15,27.168 50.73,28.0782 7.04,-7.5782 54.42,-42.4531625 120.15,-42.4531625 8.38,0 15.58,-0.1953125 23.94,0 C 1731.04,2.70313 1810.56,70.9063 1810.56,183.719 V 282 c 0,110.52 -80.02,183.918 -190.5,183.918" /><path
             id="path32"
             style="fill:#231f20;fill-opacity:1;fill-rule:nonzero;stroke:none"
             d="m 109.902,480.707 c 0,0 70.821,-0.016 132.09,-0.016 61.278,0 114.934,-19.183 114.934,-76.898 0,-58.07 -33.696,-79.137 -114.934,-79.137 -81.238,0 -132.09,0 -132.09,0 z M 475.262,14.4609 266.738,246.629 c 10.41,-0.703 20.879,-1.113 31.27,-1.113 71.504,0 160.437,45.41 160.437,159.589 0,137.782 -114.09,171.875 -215.175,171.875 -101.051,0 -243.27,0 -243.27,0 V 14.4609 H 109.902 L 109.813,265.711 335.762,14.4609 h 139.5" /><path
             id="path34"
             style="fill:#b21c28;fill-opacity:1;fill-rule:nonzero;stroke:none"
             d="M 3687.43,32.332 3432.09,159.434 H 3157.31 L 2901.96,32.332 c 0,0 -6.13,-14.6093 7,-30.67184 h 771.46 c 13.14,16.06254 7.01,30.67184 7.01,30.67184" /><path
             id="path36"
             style="fill:#b21c28;fill-opacity:1;fill-rule:nonzero;stroke:none"
             d="m 2888.48,48.4844 239.04,155.5786 3.05,5.156 133.3,226.472 3.03,5.172 20.01,284.532 c 0,0 -9.47,12.691 -29.99,9.5 L 3081.98,437.68 3040.54,367.301 2865.58,70.0859 c 7.19,-19.4726 22.9,-21.6015 22.9,-21.6015" /><path
             id="path38"
             style="fill:#b21c28;fill-opacity:1;fill-rule:nonzero;stroke:none"
             d="m 3704.01,48.4844 -239.06,155.5786 -3.05,5.156 -133.29,226.472 -3.04,5.172 -20.01,284.532 c 0,0 9.47,12.691 29.99,9.5 l 174.96,-297.215 41.42,-70.379 174.96,-297.2151 c -7.19,-19.4726 -22.88,-21.6015 -22.88,-21.6015" /></g></g></g></g></svg>