<?xml version="1.0" encoding="UTF-8" standalone="yes"?>
<!-- Created with sK1/UniConvertor (http://sk1project.org/) -->
<svg xmlns="http://www.w3.org/2000/svg" xmlns:xlink="http://www.w3.org/1999/xlink"
  width="595.276pt" height="841.89pt" viewBox="0 0 595.276 841.89"
  fill-rule="evenodd">
<g>
<g>
<path style="stroke:none; fill:#ffffff" d="M 0 633.89L 866.65 633.89C 831.38 695.77 795.38 757.25 760.05 819.09C 760.94 821.99 762.94 824.4 764.32 827.09C 767.68 825.65 770.51 823.29 773.58 821.34C 790.27 810.07 807 798.88 823.69 787.6C 826.68 785.29 830.47 783.85 832.84 780.82C 845.24 759.5 857.45 738.07 869.88 716.77C 871.49 714.15 871.05 710.93 871.34 707.99C 872.74 684.95 874.12 661.91 875.64 638.88C 875.62 637.23 876.09 635.41 875.25 633.89L 883.72 633.89C 885.02 659.56 886.8 685.21 888.15 710.87C 888.31 712.56 888.14 714.39 888.99 715.93C 901.41 737.5 913.85 759.07 926.25 780.66C 927.3 782.57 929.36 783.52 931.09 784.73C 952.47 799.04 973.79 813.44 995.17 827.74C 996.79 825.28 998.04 822.56 1000 820.33L 1000 841.89L 987.32 841.89C 988.26 839.22 990.92 836.87 990.99 834.12C 968.02 822.36 944.94 810.78 921.95 799.06C 920.1 798.15 918.24 797 916.11 797.14C 901.06 797.16 886.01 797.1 870.96 797.17C 861 797.73 850.99 797.04 841.04 797.56C 828.3 803.38 816.03 810.21 803.42 816.31C 791.88 822.13 780.24 827.8 768.85 833.89C 769.25 836.84 771.57 839.29 773.02 841.89L 436.82 841.89C 449.81 841.13 463.08 836.77 472.38 827.32C 481.07 818.58 485.6 806.17 485.53 793.92C 485.49 783.91 485.51 773.9 485.52 763.89C 485.4 749.58 478.74 735.25 467.16 726.67C 454.73 717.27 438.19 715 423.12 717.49C 417.28 718.46 411.74 720.75 406.83 724.01C 406.67 711.6 406.76 699.18 406.78 686.77C 396.92 686.6 387.04 686.48 377.19 686.83C 377.3 737.22 377.26 787.62 377.21 838.01C 384.46 839.54 389.56 832.98 395.93 830.87C 404.48 837.14 414.67 841.11 425.28 841.89L 0 841.89L 0 838.13C 9.86 837.97 19.74 838.5 29.58 837.86C 29.51 815.75 29.29 793.63 29.69 771.53C 32.36 773.73 34.46 776.52 36.8 779.06C 54.55 798.73 72.21 818.5 90.01 838.13C 102.48 838.1 114.94 838.23 127.41 838.06C 125.93 836.04 124.29 834.15 122.59 832.32C 105.69 813.56 88.9 794.7 71.99 775.95C 83.57 776.75 95.79 775.19 105.54 768.44C 114.9 762.34 121.01 751.94 122.48 740.93C 124.11 728.71 122.41 715.32 114.73 705.3C 107.82 696.21 96.93 691.12 85.99 688.79C 77.46 686.92 68.68 686.58 59.97 686.64C 39.98 686.68 19.99 686.57 0 686.69L 0 633.89zM 623.8 686.65C 623.72 737.14 623.71 787.62 623.81 838.11C 633.61 838.15 643.42 838.18 653.22 838.09C 653.25 820.36 653.28 802.62 653.2 784.89C 668.39 801.33 683.22 818.11 698.26 834.69C 699.66 835.98 700.65 838.44 702.93 838.15C 714.69 838.07 726.46 838.25 738.23 838.05C 734.24 832.65 729.29 828.01 724.94 822.91C 710.99 807.31 696.78 791.95 682.99 776.22C 699.75 757.54 716.15 738.51 732.82 719.74C 733.66 718.69 734.98 717.76 734.81 716.24C 722.83 716.61 710.84 716.27 698.85 716.42C 690.97 725.32 683.14 734.27 675.29 743.2C 667.85 751.38 660.96 760.11 653.2 767.96C 653.28 740.87 653.29 713.76 653.19 686.66C 643.39 686.62 633.6 686.64 623.8 686.65zM 144.57 730.42C 135.77 738.74 131.31 750.88 131 762.84C 130.99 772.84 131.02 782.85 130.98 792.85C 130.73 805.03 135.34 817.33 143.9 826.04C 152.12 834.54 163.53 839.5 175.14 841.05C 182.71 841.09 190.28 840.91 197.85 841.1C 208.71 840.19 219.86 836.52 227.68 828.64C 234.62 821.9 238.01 812.33 238.84 802.84C 229.86 802.51 220.82 802.51 211.86 802.83C 210.81 805.84 210.05 809.19 207.41 811.28C 201.79 815.97 194.04 816.55 187.02 816.64C 180.01 816.01 172.24 815.12 166.86 810.09C 160.9 804.31 159.63 795.46 160.03 787.54C 186.29 787.26 212.57 787.33 238.84 787.5C 239.62 784.7 239.14 781.77 239.24 778.91C 239.09 770.59 239.84 762.18 238.1 753.98C 236.02 743.46 230.23 733.59 221.56 727.18C 210.92 719.15 197.23 716.06 184.07 716.37C 169.89 716.28 154.96 720.35 144.57 730.42zM 268.35 729.28C 258.55 737.88 253.66 751.01 253.49 763.86C 253.48 773.87 253.5 783.88 253.48 793.88C 253.67 803.2 256.32 812.59 261.72 820.24C 269.91 832.2 283.88 839.5 298.13 841.02C 305.4 840.96 312.68 840.9 319.95 841.23C 330.4 840.27 341.09 837.02 349.02 829.87C 356.67 823.02 360.68 812.8 361.28 802.69C 352.5 802.62 343.72 802.61 334.94 802.68C 333.33 804.27 333.7 807.18 332.1 808.94C 327.11 815.79 317.75 816.43 309.99 816.65C 302.3 816.07 293.52 814.95 288.21 808.7C 283.35 802.87 281.89 794.63 283.16 787.29C 309.23 787.63 335.33 787.16 361.4 787.53C 362.24 780.7 361.5 773.74 361.76 766.86C 362.35 753.67 357.93 739.88 348.2 730.68C 337.64 720.39 322.43 716.21 307.98 716.36C 293.88 716.08 279.09 719.77 268.35 729.28zM 543.07 717.04C 535.51 718.15 528.01 720.44 521.49 724.51C 512.3 729.97 505.53 739.06 502.52 749.27C 499.33 759.49 500.44 770.29 500.25 780.82C 500.37 787.48 499.86 794.19 500.84 800.81C 501.94 808.56 504.64 816.2 509.43 822.46C 517.72 833.66 531.45 839.85 545.09 841.11C 551.68 840.89 558.28 840.98 564.88 841.05C 573.3 840.13 581.62 837.34 588.69 832.62C 598.28 826.42 604.9 816.15 607.2 805.02C 609.19 796.44 608.32 787.6 608.51 778.88C 608.34 769.89 609.22 760.73 606.95 751.92C 604.39 740.95 597.6 730.96 588 724.98C 574.77 716.55 558.31 715.15 543.07 717.04z"/>
<path style="stroke:none; fill:#ffffff" d="M 893.53 633.89L 1000 633.89L 1000 818.53C 990.02 802.17 980.78 785.35 971.08 768.82C 951.56 734.98 932.05 701.14 912.53 667.3C 906.26 656.13 899.45 645.24 893.53 633.89z"/>
<path style="stroke:none; fill:#ffffff" d="M 29.56 712.87C 42.73 712.94 55.9 712.82 69.06 712.93C 76.84 713.44 85.28 715.15 90.94 720.93C 95.45 725.64 96.26 732.68 95.09 738.86C 94.32 743.54 91.63 748.01 87.4 750.32C 81.52 753.59 74.6 754.24 68 754.4C 55.17 754.35 42.35 754.48 29.52 754.34C 29.49 740.52 29.43 726.69 29.56 712.87z"/>
<path style="stroke:none; fill:#ffffff" d="M 165.4 748.27C 171.35 741.92 180.82 740.57 189.09 741.38C 195.95 742.03 203.17 744.97 206.88 751.09C 209.77 755.42 210.46 760.78 210.25 765.88C 193.48 765.89 176.72 765.91 159.96 765.87C 159.94 759.68 160.89 752.91 165.4 748.27z"/>
<path style="stroke:none; fill:#ffffff" d="M 288.16 748.09C 293.7 742.24 302.3 740.81 310.01 741.22C 316.85 741.56 324.07 743.96 328.37 749.55C 332.12 754.05 332.96 760.13 332.84 765.8C 316.16 766 299.47 765.84 282.78 765.88C 282.31 759.59 283.63 752.76 288.16 748.09z"/>
<path style="stroke:none; fill:#ffffff" d="M 423.51 743.42C 431.34 741.42 440.11 742.34 447.01 746.7C 453.13 750.5 456.29 757.83 456.26 764.87C 456.22 774.86 456.29 784.85 456.22 794.84C 456.02 802.32 451.81 809.65 445.01 813C 436.84 816.93 426.77 817.05 418.55 813.19C 411.15 809.89 406.64 801.88 406.74 793.9C 406.87 783.26 406.53 772.6 406.91 761.97C 407.56 752.92 414.64 745.16 423.51 743.42z"/>
<path style="stroke:none; fill:#ffffff" d="M 545.38 743.46C 554.05 741.15 564.13 741.99 571.42 747.57C 576.72 751.63 579.06 758.43 579.2 764.92C 579.31 773.92 579.21 782.92 579.25 791.91C 579.27 798.3 577.45 805.1 572.54 809.49C 566.28 815.23 557.2 816.49 549.06 815.32C 543.49 814.4 537.91 811.96 534.32 807.45C 530.74 803.13 529.46 797.36 529.48 791.86C 529.5 783.2 529.5 774.54 529.49 765.89C 529.51 760.83 530.57 755.6 533.53 751.41C 536.26 747.33 540.74 744.78 545.38 743.46z"/>
</g>
<g>
<path style="stroke:none; fill:#c4122e" d="M 866.65 633.89L 875.25 633.89C 876.09 635.41 875.62 637.23 875.64 638.88C 874.12 661.91 872.74 684.95 871.34 707.99C 871.05 710.93 871.49 714.15 869.88 716.77C 857.45 738.07 845.24 759.5 832.84 780.82C 830.47 783.85 826.68 785.29 823.69 787.6C 807 798.88 790.27 810.07 773.58 821.34C 770.51 823.29 767.68 825.65 764.32 827.09C 762.94 824.4 760.94 821.99 760.05 819.09C 795.38 757.25 831.38 695.77 866.65 633.89z"/>
<path style="stroke:none; fill:#c4122e" d="M 883.72 633.89L 893.53 633.89C 899.45 645.24 906.26 656.13 912.53 667.3C 932.05 701.14 951.56 734.98 971.08 768.82C 980.78 785.35 990.02 802.17 1000 818.53L 1000 820.33C 998.04 822.56 996.79 825.28 995.17 827.74C 973.79 813.44 952.47 799.04 931.09 784.73C 929.36 783.52 927.3 782.57 926.25 780.66C 913.85 759.07 901.41 737.5 888.99 715.93C 888.14 714.39 888.31 712.56 888.15 710.87C 886.8 685.21 885.02 659.56 883.72 633.89z"/>
<path style="stroke:none; fill:#c4122e" d="M 841.04 797.56C 850.99 797.04 861 797.73 870.96 797.17C 886.01 797.1 901.06 797.16 916.11 797.14C 918.24 797 920.1 798.15 921.95 799.06C 944.94 810.78 968.02 822.36 990.99 834.12C 990.92 836.87 988.26 839.22 987.32 841.89L 773.02 841.89C 771.57 839.29 769.25 836.84 768.85 833.89C 780.24 827.8 791.88 822.13 803.42 816.31C 816.03 810.21 828.3 803.38 841.04 797.56z"/>
</g>
<g>
<path style="stroke:none; fill:#211f1f" d="M 0 686.69C 19.99 686.57 39.98 686.68 59.97 686.64C 68.68 686.58 77.46 686.92 85.99 688.79C 96.93 691.12 107.82 696.21 114.73 705.3C 122.41 715.32 124.11 728.71 122.48 740.93C 121.01 751.94 114.9 762.34 105.54 768.44C 95.79 775.19 83.57 776.75 71.99 775.95C 88.9 794.7 105.69 813.56 122.59 832.32C 124.29 834.15 125.93 836.04 127.41 838.06C 114.94 838.23 102.48 838.1 90.01 838.13C 72.21 818.5 54.55 798.73 36.8 779.06C 34.46 776.52 32.36 773.73 29.69 771.53C 29.29 793.63 29.51 815.75 29.58 837.86C 19.74 838.5 9.86 837.97 0 838.13L 0 686.69zM 29.56 712.87C 29.43 726.69 29.49 740.52 29.52 754.34C 42.35 754.48 55.17 754.35 68 754.4C 74.6 754.24 81.52 753.59 87.4 750.32C 91.63 748.01 94.32 743.54 95.09 738.86C 96.26 732.68 95.45 725.64 90.94 720.93C 85.28 715.15 76.84 713.44 69.06 712.93C 55.9 712.82 42.73 712.94 29.56 712.87z"/>
<path style="stroke:none; fill:#211f1f" d="M 377.19 686.83C 387.04 686.48 396.92 686.6 406.78 686.77C 406.76 699.18 406.67 711.6 406.83 724.01C 411.74 720.75 417.28 718.46 423.12 717.49C 438.19 715 454.73 717.27 467.16 726.67C 478.74 735.25 485.4 749.58 485.52 763.89C 485.51 773.9 485.49 783.91 485.53 793.92C 485.6 806.17 481.07 818.58 472.38 827.32C 463.08 836.77 449.81 841.13 436.82 841.89L 425.28 841.89C 414.67 841.11 404.48 837.14 395.93 830.87C 389.56 832.98 384.46 839.54 377.21 838.01C 377.26 787.62 377.3 737.22 377.19 686.83zM 423.51 743.42C 414.64 745.16 407.56 752.92 406.91 761.97C 406.53 772.6 406.87 783.26 406.74 793.9C 406.64 801.88 411.15 809.89 418.55 813.19C 426.77 817.05 436.84 816.93 445.01 813C 451.81 809.65 456.02 802.32 456.22 794.84C 456.29 784.85 456.22 774.86 456.26 764.87C 456.29 757.83 453.13 750.5 447.01 746.7C 440.11 742.34 431.34 741.42 423.51 743.42z"/>
<path style="stroke:none; fill:#211f1f" d="M 623.8 686.65C 633.6 686.64 643.39 686.62 653.19 686.66C 653.29 713.76 653.28 740.87 653.2 767.96C 660.96 760.11 667.85 751.38 675.29 743.2C 683.14 734.27 690.97 725.32 698.85 716.42C 710.84 716.27 722.83 716.61 734.81 716.24C 734.98 717.76 733.66 718.69 732.82 719.74C 716.15 738.51 699.75 757.54 682.99 776.22C 696.78 791.95 710.99 807.31 724.94 822.91C 729.29 828.01 734.24 832.65 738.23 838.05C 726.46 838.25 714.69 838.07 702.93 838.15C 700.65 838.44 699.66 835.98 698.26 834.69C 683.22 818.11 668.39 801.33 653.2 784.89C 653.28 802.62 653.25 820.36 653.22 838.09C 643.42 838.18 633.61 838.15 623.81 838.11C 623.71 787.62 623.72 737.14 623.8 686.65z"/>
<path style="stroke:none; fill:#211f1f" d="M 144.57 730.42C 154.96 720.35 169.89 716.28 184.07 716.37C 197.23 716.06 210.92 719.15 221.56 727.18C 230.23 733.59 236.02 743.46 238.1 753.98C 239.84 762.18 239.09 770.59 239.24 778.91C 239.14 781.77 239.62 784.7 238.84 787.5C 212.57 787.33 186.29 787.26 160.03 787.54C 159.63 795.46 160.9 804.31 166.86 810.09C 172.24 815.12 180.01 816.01 187.02 816.64C 194.04 816.55 201.79 815.97 207.41 811.28C 210.05 809.19 210.81 805.84 211.86 802.83C 220.82 802.51 229.86 802.51 238.84 802.84C 238.01 812.33 234.62 821.9 227.68 828.64C 219.86 836.52 208.71 840.19 197.85 841.1C 190.28 840.91 182.71 841.09 175.14 841.05C 163.53 839.5 152.12 834.54 143.9 826.04C 135.34 817.33 130.73 805.03 130.98 792.85C 131.02 782.85 130.99 772.84 131 762.84C 131.31 750.88 135.77 738.74 144.57 730.42zM 165.4 748.27C 160.89 752.91 159.94 759.68 159.96 765.87C 176.72 765.91 193.48 765.89 210.25 765.88C 210.46 760.78 209.77 755.42 206.88 751.09C 203.17 744.97 195.95 742.03 189.09 741.38C 180.82 740.57 171.35 741.92 165.4 748.27z"/>
<path style="stroke:none; fill:#211f1f" d="M 268.35 729.28C 279.09 719.77 293.88 716.08 307.98 716.36C 322.43 716.21 337.64 720.39 348.2 730.68C 357.93 739.88 362.35 753.67 361.76 766.86C 361.5 773.74 362.24 780.7 361.4 787.53C 335.33 787.16 309.23 787.63 283.16 787.29C 281.89 794.63 283.35 802.87 288.21 808.7C 293.52 814.95 302.3 816.07 309.99 816.65C 317.75 816.43 327.11 815.79 332.1 808.94C 333.7 807.18 333.33 804.27 334.94 802.68C 343.72 802.61 352.5 802.62 361.28 802.69C 360.68 812.8 356.67 823.02 349.02 829.87C 341.09 837.02 330.4 840.27 319.95 841.23C 312.68 840.9 305.4 840.96 298.13 841.02C 283.88 839.5 269.91 832.2 261.72 820.24C 256.32 812.59 253.67 803.2 253.48 793.88C 253.5 783.88 253.48 773.87 253.49 763.86C 253.66 751.01 258.55 737.88 268.35 729.28zM 288.16 748.09C 283.63 752.76 282.31 759.59 282.78 765.88C 299.47 765.84 316.16 766 332.84 765.8C 332.96 760.13 332.12 754.05 328.37 749.55C 324.07 743.96 316.85 741.56 310.01 741.22C 302.3 740.81 293.7 742.24 288.16 748.09z"/>
<path style="stroke:none; fill:#211f1f" d="M 543.07 717.04C 558.31 715.15 574.77 716.55 588 724.98C 597.6 730.96 604.39 740.95 606.95 751.92C 609.22 760.73 608.34 769.89 608.51 778.88C 608.32 787.6 609.19 796.44 607.2 805.02C 604.9 816.15 598.28 826.42 588.69 832.62C 581.62 837.34 573.3 840.13 564.88 841.05C 558.28 840.98 551.68 840.89 545.09 841.11C 531.45 839.85 517.72 833.66 509.43 822.46C 504.64 816.2 501.94 808.56 500.84 800.81C 499.86 794.19 500.37 787.48 500.25 780.82C 500.44 770.29 499.33 759.49 502.52 749.27C 505.53 739.06 512.3 729.97 521.49 724.51C 528.01 720.44 535.51 718.15 543.07 717.04zM 545.38 743.46C 540.74 744.78 536.26 747.33 533.53 751.41C 530.57 755.6 529.51 760.83 529.49 765.89C 529.5 774.54 529.5 783.2 529.48 791.86C 529.46 797.36 530.74 803.13 534.32 807.45C 537.91 811.96 543.49 814.4 549.06 815.32C 557.2 816.49 566.28 815.23 572.54 809.49C 577.45 805.1 579.27 798.3 579.25 791.91C 579.21 782.92 579.31 773.92 579.2 764.92C 579.06 758.43 576.72 751.63 571.42 747.57C 564.13 741.99 554.05 741.15 545.38 743.46z"/>
</g>
</g>
</svg>