<?xml version="1.0" encoding="UTF-8" standalone="no"?>
<svg
   xmlns:dc="http://purl.org/dc/elements/1.1/"
   xmlns:cc="http://creativecommons.org/ns#"
   xmlns:rdf="http://www.w3.org/1999/02/22-rdf-syntax-ns#"
   xmlns:svg="http://www.w3.org/2000/svg"
   xmlns="http://www.w3.org/2000/svg"
   viewBox="0 0 1620.2133 256.62668"
   height="256.62668"
   width="1620.2133"
   xml:space="preserve"
   id="svg2"
   version="1.1"><metadata
     id="metadata8"><rdf:RDF><cc:Work
         rdf:about=""><dc:format>image/svg+xml</dc:format><dc:type
           rdf:resource="http://purl.org/dc/dcmitype/StillImage" /></cc:Work></rdf:RDF></metadata><defs
     id="defs6" /><g
     transform="matrix(1.3333333,0,0,-1.3333333,0,256.62667)"
     id="g10"><g
       transform="scale(0.1)"
       id="g12"><path
         id="path14"
         style="fill:#bdbcbc;fill-opacity:1;fill-rule:evenodd;stroke:none"
         d="m 5970.66,1845.23 h 520.37 V 89.3242 H 6126.66 L 4938.36,1279.14 V 89.3242 H 4493.55 V 1710.8 l -75.54,134.43 h 419.64 L 6046.21,620.016 V 1710.8 l -75.55,134.43 v 0" /><path
         id="path16"
         style="fill:#bdbcbc;fill-opacity:1;fill-rule:evenodd;stroke:none"
         d="m 6651.44,71.8633 h 371.15 l 232.77,461.2387 h 887.23 l 259,-461.2387 h 529 L 7820.11,1852.56 h 4.27 -371.09 l 48.27,-90.6 L 6651.44,71.8633 Z m 703.11,657.6717 320.79,635.595 356.96,-635.595 h -677.75 v 0" /><path
         id="path18"
         style="fill:#bdbcbc;fill-opacity:1;fill-rule:evenodd;stroke:none"
         d="M 9120.89,71.8633 H 9583.5 V 1664.77 h 644.2 v 187.6 H 8394.69 l 117.14,-187.6 h 609.06 V 71.8633" /><path
         id="path20"
         style="fill:#bdbcbc;fill-opacity:1;fill-rule:evenodd;stroke:none"
         d="m 9872.43,71.8633 h 371.17 l 232.8,461.2387 h 887.2 l 259,-461.2387 h 529 L 11041.1,1852.56 h 4.3 -371.1 l 48.2,-90.6 L 9872.43,71.8633 Z m 703.07,657.6717 320.8,635.595 357,-635.595 h -677.8 v 0" /><path
         id="path22"
         style="fill:#bdbcbc;fill-opacity:1;fill-rule:evenodd;stroke:none"
         d="m 2457.67,962.344 c 2.58,494.276 299.8,733.116 678.34,736.146 378.53,-3.03 675.74,-241.87 678.33,-736.146 -2.59,-494.262 -299.8,-733.121 -678.33,-736.129 -378.54,3.008 -675.76,241.867 -678.34,736.129 z m -441.72,0 c 4.26,646.156 495.02,958.396 1120.06,962.346 625.03,-3.95 1115.78,-316.19 1120.07,-962.346 C 4251.79,316.191 3761.04,3.94141 3136.01,0 2510.97,3.94141 2020.21,316.191 2015.95,962.344 v 0" /><path
         id="path24"
         style="fill:#bdbcbc;fill-opacity:1;fill-rule:evenodd;stroke:none"
         d="m 1838.76,1335.84 c -173.58,187.8 -424.58,346.97 -889.311,336.82 -410.656,-8.98 -457.703,-283.63 -134.269,-415.57 l 284.94,-116.22 h 0.02 C 1363.05,1049.74 1955.3,855.313 1951.12,515.316 1947.03,181.109 1604.5,50.1367 1048.32,46.1953 677.129,43.5703 289.762,155.879 0,306.609 L 3.75391,793.574 C 258.277,469.828 502.305,260.195 1016.48,251.387 c 449.38,-7.727 615.61,298.57 223.66,463.097 L 502.82,1023.95 C 232.301,1137.49 64.4531,1279.25 54.4766,1455.23 36.332,1775.14 562.922,1883.19 916.41,1887.01 c 355.88,3.81 644.55,-69.24 922.35,-213.73 v -337.44" /></g></g></svg>